<svg xmlns="http://www.w3.org/2000/svg" width="256" height="256" shape-rendering="geometricPrecision"><g transform="scale(1,1)" stroke-width=".05%"><g fill="#839090"><path d=" M 113.93 14.29 C 118.71 17.98 120.92 24.04 120.88 29.95 C 121.55 40.64 115.79 50.43 116.31 61.13 C 112.78 59.58 108.75 57.63 107.61 53.59 C 105.23 45.38 109.08 37.20 111.92 29.65 C 113.90 24.77 113.71 19.45 113.93 14.29 Z"/><path d=" M 141.14 16.64 C 142.63 19.89 143.95 23.46 143.10 27.08 C 141.68 33.17 138.30 38.65 134.15 43.26 C 133.07 41.27 132.00 39.29 130.92 37.31 C 136.01 31.39 138.73 23.96 141.14 16.64 Z"/><path d=" M 98.88 18.50 C 107.13 25.22 105.51 37.12 102.20 45.96 C 100.48 44.60 98.76 43.23 97.04 41.88 C 99.55 34.32 99.46 26.34 98.88 18.50 Z"/><path d=" M 147.51 33.62 C 152.13 29.43 154.42 23.51 156.83 17.92 C 158.99 22.58 159.99 27.91 158.29 32.88 C 155.59 44.19 145.55 51.56 141.79 62.38 C 138.39 59.67 135.62 55.57 136.50 51.02 C 137.94 44.12 142.46 38.33 147.51 33.62 Z"/><path d=" M 72.86 27.65 C 78.15 29.36 82.45 33.29 84.79 38.31 C 90.18 48.14 88.34 60.02 93.29 70.01 C 88.96 70.22 83.97 69.54 81.49 65.50 C 74.84 56.13 79.15 44.05 75.24 33.84 C 74.52 31.75 73.66 29.71 72.86 27.65 Z"/><path d=" M 126.14 36.96 C 126.02 33.67 127.31 30.59 128.52 27.61 C 128.48 30.94 127.76 34.52 129.35 37.64 C 131.43 41.93 134.26 46.08 134.50 51.00 C 134.89 54.29 133.21 57.27 131.90 60.15 C 131.66 51.98 125.81 45.19 126.14 36.96 Z"/><path d=" M 164.82 45.89 C 171.98 42.50 177.45 36.70 182.98 31.22 C 183.45 42.01 173.75 49.06 164.80 52.71 C 164.80 50.43 164.81 48.16 164.82 45.89 Z"/><path d=" M 91.26 33.46 C 92.30 36.84 93.23 40.52 96.05 42.91 C 99.60 46.01 103.58 48.96 105.57 53.39 C 107.03 56.12 106.44 59.29 106.22 62.22 C 103.11 55.43 96.19 51.48 93.09 44.69 C 91.15 41.28 91.23 37.26 91.26 33.46 Z"/><path d=" M 160.46 43.73 C 161.76 40.65 164.20 38.27 166.53 35.94 C 165.38 38.54 163.63 41.02 163.47 43.95 C 163.08 49.58 164.13 55.48 161.94 60.86 C 160.88 63.56 158.32 65.13 156.06 66.74 C 159.31 59.44 157.18 51.01 160.46 43.73 Z"/><path d=" M 60.70 37.59 C 71.03 40.55 73.88 52.30 74.38 61.71 C 72.18 60.98 69.97 60.25 67.77 59.51 C 67.65 51.60 63.86 44.60 60.70 37.59 Z"/><path d=" M 183.40 48.48 C 188.48 46.41 192.52 42.65 196.39 38.90 C 196.73 44.41 194.66 49.80 190.90 53.81 C 183.71 62.60 171.75 64.98 164.11 73.28 C 162.77 69.56 161.33 65.27 163.64 61.59 C 167.57 54.13 176.22 51.66 183.40 48.48 Z"/><path d=" M 121.11 53.01 C 120.57 49.12 123.02 45.79 124.82 42.60 C 125.93 45.40 127.03 48.21 128.23 50.97 C 127.26 54.01 126.66 57.16 126.29 60.33 C 124.20 58.23 121.19 56.30 121.11 53.01 Z"/><path d=" M 148.90 56.97 C 149.79 52.90 153.43 50.36 156.48 47.90 C 156.52 50.95 156.55 53.99 156.62 57.04 C 154.53 59.42 152.68 62.00 151.03 64.71 C 150.07 62.24 148.24 59.74 148.90 56.97 Z"/><path d=" M 93.73 60.26 C 91.58 56.84 92.61 52.62 93.34 48.94 C 95.34 51.01 97.48 52.99 99.18 55.33 C 100.00 58.42 100.30 61.64 101.07 64.76 C 98.42 63.71 95.28 62.90 93.73 60.26 Z"/><path d=" M 59.31 54.43 C 61.69 56.75 63.71 59.78 66.98 60.92 C 71.70 62.61 76.89 63.81 80.55 67.47 C 82.73 69.45 83.43 72.42 84.38 75.09 C 78.61 69.82 70.22 68.89 64.72 63.30 C 62.18 60.85 60.70 57.60 59.31 54.43 Z"/><path d=" M 39.40 56.65 C 44.65 56.14 49.98 57.55 54.15 60.83 C 63.52 67.64 66.98 79.48 75.63 86.99 C 72.20 88.25 68.36 90.15 64.77 88.32 C 57.39 85.12 53.57 77.33 50.47 70.37 C 48.12 64.84 43.80 60.58 39.40 56.65 Z"/><path d=" M 185.98 65.99 C 188.81 62.25 193.25 60.33 197.56 58.86 C 194.75 61.18 191.36 63.23 189.99 66.80 C 188.20 71.17 186.95 76.04 183.30 79.32 C 181.20 81.43 178.15 81.95 175.40 82.67 C 180.21 77.96 181.91 71.22 185.98 65.99 Z"/><path d=" M 213.60 61.32 C 213.62 62.08 213.64 62.84 213.67 63.60 C 208.17 71.22 198.39 74.30 189.30 73.35 C 190.19 71.18 191.09 69.02 191.98 66.85 C 199.63 67.35 206.75 64.31 213.60 61.32 Z"/><path d=" M 173.11 70.05 C 175.70 67.06 179.91 66.70 183.53 65.91 C 182.29 68.58 181.03 71.23 179.80 73.91 C 176.86 75.28 174.05 76.90 171.33 78.66 C 171.46 75.76 170.98 72.39 173.11 70.05 Z"/><path d=" M 67.20 67.64 C 69.88 68.85 72.57 70.05 75.31 71.13 C 76.89 73.98 78.60 76.75 80.50 79.40 C 77.64 79.55 74.36 79.99 72.00 77.95 C 68.68 75.58 67.97 71.36 67.20 67.64 Z"/><path d=" M 32.55 70.65 C 43.22 69.15 50.75 78.57 54.87 87.14 C 52.63 87.32 50.39 87.51 48.16 87.70 C 44.57 80.68 38.38 75.71 32.55 70.65 Z"/><path d=" M 205.06 77.50 C 211.40 78.29 217.48 75.90 223.35 73.87 C 221.30 78.98 217.38 83.25 212.19 85.25 C 201.92 90.05 190.10 87.69 179.65 91.84 C 179.99 87.94 180.64 83.55 184.07 81.10 C 190.05 76.68 198.00 76.83 205.06 77.50 Z"/><path d=" M 38.34 86.62 C 41.75 87.94 45.18 89.98 48.98 89.34 C 53.71 88.71 58.69 88.00 63.29 89.76 C 66.04 90.69 67.77 93.15 69.64 95.22 C 62.13 92.40 53.86 95.35 46.41 92.30 C 43.28 91.12 40.77 88.83 38.34 86.62 Z"/><path d=" M 203.90 93.76 C 207.74 91.64 212.21 91.62 216.47 91.91 C 212.70 92.87 208.64 93.85 206.03 96.98 C 202.32 101.23 197.87 105.00 192.24 106.34 C 190.43 105.88 188.63 105.44 186.81 105.03 C 193.61 103.04 197.55 96.57 203.90 93.76 Z"/><path d=" M 190.41 92.58 C 193.83 91.04 197.51 92.38 200.96 93.07 C 198.69 95.13 196.36 97.13 194.07 99.17 C 190.90 99.19 187.75 99.44 184.61 99.88 C 185.97 97.10 187.21 93.70 190.41 92.58 Z"/><path d=" M 20.98 97.43 C 25.70 94.39 31.54 93.83 36.89 95.36 C 47.79 97.79 55.49 106.90 66.20 109.82 C 63.68 112.92 60.34 116.07 56.01 115.72 C 47.84 115.15 41.35 109.51 35.41 104.41 C 31.31 100.83 26.02 99.22 20.98 97.43 Z"/><path d=" M 50.89 95.53 C 53.92 95.46 56.96 95.40 59.99 95.31 C 62.46 97.24 65.10 98.92 67.76 100.58 C 65.28 101.76 62.72 103.34 59.84 102.83 C 55.72 102.29 53.28 98.49 50.89 95.53 Z"/><path d=" M 203.21 102.14 C 204.78 100.53 206.33 98.90 207.88 97.27 C 215.08 100.55 223.11 100.33 230.85 100.63 C 223.60 108.42 211.83 106.05 203.21 102.14 Z"/><path d=" M 187.37 115.40 C 189.24 111.45 192.17 107.44 196.85 106.82 C 204.26 106.03 211.31 109.33 217.83 112.44 C 223.01 114.93 228.82 115.46 234.47 115.87 C 231.02 118.94 226.92 121.62 222.14 121.71 C 210.00 123.31 199.30 115.78 187.37 115.40 Z"/><path d=" M 20.34 113.11 C 23.36 111.64 26.56 110.16 30.01 110.55 C 36.64 110.91 42.37 114.84 47.55 118.67 C 45.66 119.75 43.86 121.05 41.80 121.80 C 39.85 120.99 38.13 119.73 36.29 118.72 C 31.36 115.88 25.71 114.79 20.34 113.11 Z"/><path d=" M 42.46 123.46 C 46.74 121.05 50.99 118.08 56.02 117.61 C 59.02 117.24 61.73 118.82 64.38 119.95 C 56.87 120.17 51.10 125.92 43.75 126.73 C 39.97 127.27 36.19 126.48 32.52 125.63 C 35.84 125.02 39.46 125.24 42.46 123.46 Z"/><path d=" M 187.77 123.76 C 189.80 121.66 191.83 118.98 195.00 118.74 C 198.95 118.40 202.30 120.92 205.40 123.01 C 202.57 124.01 199.75 125.02 196.95 126.11 C 193.93 125.15 190.86 124.42 187.77 123.76 Z"/><path d=" M 55.39 124.38 C 58.61 124.38 61.77 125.24 64.96 125.60 C 63.02 127.79 61.18 130.56 58.12 131.22 C 54.22 131.84 50.56 129.91 47.51 127.70 C 50.12 126.57 52.65 125.19 55.39 124.38 Z"/><path d=" M 187.82 129.68 C 195.64 129.44 202.30 124.38 210.13 124.33 C 213.55 124.00 216.72 125.65 219.88 126.69 C 216.74 126.81 213.43 126.31 210.46 127.62 C 205.76 129.56 201.26 132.55 195.99 132.50 C 192.99 132.64 190.40 130.93 187.82 129.68 Z"/><path d=" M 18.89 137.47 C 22.77 133.27 28.07 130.25 33.89 130.19 C 45.17 129.09 55.73 134.82 67.03 133.81 C 65.52 137.76 62.68 141.41 58.46 142.61 C 50.70 145.30 42.63 142.00 35.36 139.31 C 30.09 137.42 24.42 137.43 18.89 137.47 Z"/><path d=" M 204.44 132.23 C 206.50 131.26 208.56 130.27 210.63 129.31 C 216.34 134.92 224.05 137.26 231.30 140.06 C 226.56 142.56 220.77 142.36 215.93 140.24 C 211.54 138.48 207.95 135.31 204.44 132.23 Z"/><path d=" M 184.33 139.32 C 187.76 136.26 192.18 133.33 197.02 134.58 C 204.55 136.40 210.10 142.22 215.40 147.50 C 219.21 151.34 224.29 153.42 229.07 155.74 C 223.70 158.14 217.49 158.27 212.06 155.97 C 201.72 152.28 194.90 142.58 184.33 139.32 Z"/></g></g><g transform="scale(2,2)" stroke-width=".05%"><g fill="#c3c0bf"><path d="M63.48 18.86c1.05 6.34.88 12.78.96 19.18-.19 20.4-.07 40.81-.96 61.19-.44-21.07-.54-42.15-.48-63.23-.13-5.72.07-11.43.48-17.14z"/><path d="M51.12 36.64c2.62 6.72 2.87 14.05 4.26 21.07 1.13 8.45 3.21 16.83 3.29 25.39-2.38-15.51-5.98-30.83-7.55-46.46z"/><path d="M73.72 50.94c.85-4.8 1.2-9.77 3.21-14.27-1.69 15.6-4.96 30.98-7.68 46.42.5-10.82 2.97-21.44 4.47-32.15z"/><path d="M44.91 48.36c2.56 3.85 3.23 8.5 4.77 12.78.3 1.8 1.9 3.93.75 5.66-1.99-6.1-4.59-12.06-5.52-18.44z"/><path d="M79.24 58.21c1.15-3.33 1.71-6.98 3.91-9.85-.67 5.08-2.67 9.83-4.24 14.67-1.3 3.56-2.11 7.33-4.03 10.64.88-5.3 2.87-10.32 4.36-15.46z"/><path d="M34.39 57.8c4.85 2.04 10.19 3.83 14.06 7.5-5.09-1.55-9.83-4.31-14.06-7.5z"/><path d="M82.36 63.32c3.94-1.95 7.75-4.25 11.99-5.5-4.63 3.41-9.88 5.85-15.01 8.4.77-1.18 1.66-2.35 3.02-2.9z"/><path d="M53.31 67.3c.41.41.41.41 0 0z"/><path d="M51.22 68.17c2.38 1.48 1.95 5.55 2.79 8.16-1.41-2.48-3.06-5.2-2.79-8.16z"/><path d="M74.29 68.26c.41.4.41.4 0 0z"/><path d="M67.32 71.07c3.01-1.49.09 3.34 0 0z"/><path d="M67.35 75.32c.44.42.44.42 0 0z"/><path d="M48.18 81.19c1.9-1.09 3.85-2.29 6.12-2.28-2.64 1.99-5.71 3.26-8.61 4.82-1.3.7-2.59 1.4-3.89 2.1-7.03 3.6-13.89 7.62-21.3 10.42 6.56-4.6 13.94-7.87 21.04-11.55 1.54-.86 3.1-1.71 4.66-2.55.5-.24 1.49-.72 1.98-.96z"/><path d="M75.01 78.7l2.48.96c6.95 3.75 14.18 6.99 20.98 11 3.07 1.46 6.02 3.14 8.99 4.8l-.22.7c-2.29-1.16-4.61-2.29-6.93-3.39-8.48-4.26-16.84-8.78-25.32-13.04l.02-1.03z"/></g><g fill="#1a181b"><path d="M63.61 17.13c3.78 3.14 2.69 8.15 2.84 12.45-.36.32-1.09.95-1.45 1.26.01 3.61-.07 7.21.1 10.81 1.95.53 3.87 1.16 5.8 1.8l.16-1.45h1.44c-.4 1.99-.87 3.97-1.21 5.98-.43-1.08-.88-2.15-1.34-3.21-1.4.3-2.8.61-4.2.92.64.49 1.91 1.48 2.55 1.97l-1.3.49c.19.46.57 1.37.75 1.82-1.15 2.54-.66 5.35-.78 8.04-.17 4.94-.17 9.9-.59 14.83l1.43-.76-.24 2.64-1.19-.44c-.02 8.23-.45 16.46-.41 24.69-.54 3.81-1.19 7.64-2.35 11.32-.45-4.47-1.86-8.81-1.89-13.33-.38-14.33-.72-28.66-.9-43 .21-1.95-1.46-3.81-.28-5.65-2.19-1.12.7-1.88 1.54-2.59-1.47-.3-2.93-.62-4.39-.94-.44 1.1-.87 2.21-1.31 3.31-.35-2.11-.83-4.19-1.31-6.28.95.34 1.8.84 2.58 1.48 1.66-.6 3.33-1.19 5.01-1.78.69 8.8.16 17.63.33 26.44.46 11.05.08 22.1.45 33.15.46-7.36-.02-14.76.81-22.11.17-17.92-.03-35.86-.01-53.78l-1.14-.06c-.14 1.96-.29 3.92-.48 5.88-2.78-2.29-.8-6.47-1.33-9.63.79-1.41 1.56-2.84 2.31-4.27zM74.14 43.35c.39-2.61.69-5.37 2.4-7.49.37.61 1.1 1.85 1.47 2.46-.42 2-.83 4.01-1.31 6l-.6-.81c-.05-.43-.15-1.31-.21-1.75-.25.23-.75.7-1 .93l-.75.66zM82.3 47.85l1.82 1.07c-.86 1.8-1.73 3.6-2.73 5.34.13 1.1.27 2.2.41 3.3l2.39-.51c-.95 1.46-2.06 2.26-3.37.56.12 3.97-2.67 7.38-3.15 11.3-.38-.26-1.14-.77-1.51-1.03-.15-3.4 2.19-6.4 2.14-9.84l1.65.36c-.95-1.21-2.75-1.53-3.23-3.11.76.26 2.28.79 3.05 1.05 1.87-2.53 1.22-5.75 2.53-8.49z"/><path d="M69.41 49.39c1.5.53 3.04.67 4.58.3l-.08 2.41c-.67 2.07-1.17 4.25-.17 6.33-2.02 2.05-1.03 5.46-2.74 7.78-1.21-3.87 1.06-7.96.7-11.99.3-1.06.62-2.12.95-3.18-.73.17-2.17.5-2.89.67l-.35-2.32z"/><path d="M73.88 52.88c.52-1.07 1.01-2.15 1.46-3.25 1.05 1.02 2.31 1.59 3.81 1.32-.03.67-.1 2-.13 2.66-1.2-2-3.25-1.98-5.14-.73zM51.73 53.01c.78.01 2.34.03 3.12.03-.02 1.4-.07 4.21-.1 5.61-.38.02-1.15.07-1.54.09-.44-1.92-.96-3.83-1.48-5.73z"/><path d="M55.31 53.19c1.43.37.77 2.69 1.16 3.85-.3 1.07-.78 1.3-1.42.71-.35-1.59-.26-3.11.26-4.56zM73.51 54.46l2.13-1.95c1.05 1.99-.63 4.24-.95 6.29-1.5-.29-.51-3.31-1.18-4.34zM26.87 53.96c2.65.85 5.26 2 8.09 2.15-.56.32-1.11.64-1.67.97.9.56 1.75 1.21 2.53 1.94-.12-.67-.35-2.01-.47-2.67 3.74 1.57 7.39 3.36 11 5.2.35.73 1.06 2.18 1.42 2.91-3.07-1.21-5.85-3.01-8.86-4.35 2.97 1.44 5.23 4.78 8.81 4.54.52 1.19 1.02 2.4 1.5 3.61-8.06-3.76-15.75-8.29-22.35-14.3m10.39 5.3c.56.53.56.53 0 0zM80.15 63.18c6.35-4.67 14.02-7.02 21.56-9-4.2 3.06-7.96 6.79-12.7 9.06-3.49 1.73-6.78 3.86-10.31 5.53.39-2.24 1.19-4.47 3.83-4.52 2.71-2.22 7-2.3 9.07-5.15-3.02 1.08-5.56 3.13-8.56 4.24-.94.6-2.02.5-2.89-.16zM73.93 64c-2.08.54-1.54-5 .57-4.03.09 1.35-.1 2.69-.57 4.03zM75.67 69.29c.75-.17 1.3.11 1.67.84-.91 2.53-3.4 5.36-1.52 8.04l.46-2.27c2.2 2.45 5.85 2.15 8.23 4.14.35-.16 1.04-.49 1.39-.66-.17.85-.49 2.55-.65 3.39 1.11-1.2 2.23-2.41 3.34-3.63-.59-.62-1.76-1.87-2.35-2.49 1.94.86 4.93.38 6.12 2.48-.56-.04-1.69-.11-2.25-.15-.27 1.92-.65 3.82-1.1 5.7.34.47 1.02 1.4 1.36 1.87l.85-.62c.99.67 2.03 1.28 3.06 1.9l-1.75.33.05 1c1.33-.78 2.74-1.57 4.16-.43.01.86-.08 1.73-.27 2.59-.62-.1-1.87-.29-2.5-.39l2.44-2.12c-3.04 2.78-5.81-.38-8.4-1.68-1.09 1.94-5.6 3.55-2.95 5.96-2.58.56-3.87-2.38-5.77-3.6 1.15.27 2.31.52 3.46.78.37-1.54.86-3.05 1.4-4.54-1 .62-2 1.22-3.01 1.81l-.21-1.32c-2.88-.91-4.85-3.6-7.81-4.56.3-.57.92-1.7 1.22-2.27 5.23 1.9 9.86 5.12 14.91 7.43-4.06-4.53-11.29-4.96-15.23-9.6l-.46 3.21c-1.33-3.73.95-7.62 2.11-11.14zM98.54 91.07c-1.29-1.06 1.52-1.29 2.12-1.67 2.3 1.4 4.71 2.6 7.13 3.77.84 1.45 1.71 2.88 2.6 4.3-4.81 1.19-10.56-1.22-13.06-5.42.57 0 1.72-.01 2.29-.01 2.71 1.1 4.93 3.65 7.99 3.64-2.76-2.04-5.84-3.52-9.07-4.61zM18.19 97.72c.53-.94 1.04-1.88 1.54-2.84 1.33.67 2.65 1.37 3.91 2.19l.69.66c-2.05.06-4.1-.05-6.14-.01z"/><path d="M63.11 25.15l1.14.06c-.02 17.92.18 35.86.01 53.78-.83 7.35-.35 14.75-.81 22.11-.37-11.05.01-22.1-.45-33.15-.17-8.81.36-17.64-.33-26.44-.42-3.47-.34-6.99-.04-10.48.19-1.96.34-3.92.48-5.88z"/><path d="M52.19 44.39c-2.14-1.92-3.31-6.95-.41-8.4 1.3 2.28 2.57 5.23 1.64 7.81.14 1.86.26 3.73.36 5.59 1.65.76 3.44.67 5-.28-.13.71-.39 2.12-.51 2.83-.49-.28-1.45-.82-1.94-1.1-.84.65-1.66 1.34-2.47 2.02-1.73-.76-3.78-1.34-4.8.72L48.78 51c1.66-.15 3.25-.65 4.8-1.24-1.79-1.23-1.04-3.56-1.39-5.37z"/><path d="M74.89 42.69c.25-.23.75-.7 1-.93.06.44.16 1.32.21 1.75-.04 2.05.07 4.19-.76 6.12-.45 1.1-.94 2.18-1.46 3.25l.03-.78.08-2.41c-.03-2.37-.04-4.79.9-7z"/><path d="M59.14 68.37h.73c-.02.45-.05 1.34-.07 1.79h-.69c.01-.45.03-1.35.03-1.79z"/><path d="M44.35 48.39l1.44-.64c.47 1.66 1.63 3.32.85 5.09.47 1.1.94 2.19 1.42 3.28 1.09-.26 2.17-.53 3.25-.81-.42 1.46-1.93 1.99-3.06 2.79l1.63-.11c.14 2.32.86 4.53 1.32 6.78 1.05.12 2.11.23 3.16.36l-1.56-4.36c1.58-2.32 2.78.47 2.63 2.16.14-1.82.26-3.73 1.52-5.17.1 4.48 1.08 8.87 1.49 13.32.26.19.78.56 1.03.75-1.25 5.45 2.07 11.14 0 16.61-2.32-7.56-4.12-15.41-4.5-23.32-.77 1.37-1.38 2.82-2.06 4.23.11-.96.34-2.89.45-3.85l-1.86-.21c.82 5.05 4.5 10 2.93 15.13l-.48-2.89c-1.08 1.5-2.63 2.47-4.27 3.26-3.08 1.68-6.63 2.69-9.19 5.18 4.92-1.1 8.54-5.28 13.49-6.53l.1 1.5 1.9.18c-3.45 1.91-6.33 4.71-9.97 6.27L45.98 86l-1.11.02c.24 1.34.41 2.72.99 3.97.77-.06 2.33-.18 3.11-.23-1.62 1.35-2.86 3.55-5.22 3.54 2.83-2.55-2.1-4.16-3.17-6.13-1.75.93-3.27 2.75-5.37 2.75.21-.47.62-1.41.83-1.88-2.05-.45-2.84 1.63-3.08 3.2-1.92.62-2.05 3-3.92 3.64-1.77.78-3.38 2.24-5.4 2.19-1.26-.82-2.58-1.52-3.91-2.19 1.86-3.11 5.87-3.7 8.67-5.72.74.58 1.49 1.15 2.23 1.73-2.75 1.06-5.36 2.48-7.82 4.09 2.63-.92 5.04-2.38 7.67-3.32.13-.62.39-1.87.52-2.5 2.95-1.31 5.84-2.75 8.59-4.44-1.12-2.03.43-5.95-2.99-5.91 1.25-1.91 3.85-1.56 5.8-1.93-.76.88-1.57 1.72-2.43 2.5 1.02.95 2.02 1.93 3.03 2.88v-2.7c.4.1 1.18.31 1.58.42.73-1.06 1.73-1.56 3-1.5 1.23-.58 2.45-1.2 3.64-1.84.6.28 1.8.85 2.39 1.13-1.18-3.78-3.12-7.43-3.71-11.36.29-.32.86-.96 1.14-1.28-.45.22-1.36.65-1.82.86-.47-2.84-1.82-5.42-2.52-8.19-.28.32-.84.95-1.13 1.27-.49-.56-.99-1.13-1.49-1.69.9-.21 2.69-.62 3.58-.83-1-2.67-3.67-5.26-3.31-8.16M38.92 86.2c.65.65.65.65 0 0m-1.9 1.01c.65.64.65.64 0 0zM72.03 65.21c.42.07 1.26.2 1.69.27-2.15 7.53-1.99 15.78-5.61 22.85-.79-5.63.76-11.13 1.13-16.71l-.4-.52-.53-.43c-.07-.68-.2-2.05-.27-2.74l1.3.87c.23-.53.69-1.59.93-2.13.83.81.99 2 1.34 3.06.11-1.51-.17-3.09.42-4.52z"/><path d="M38.92 86.2c.65.65.65.65 0 0zM37.02 87.21c.65.64.65.64 0 0z"/></g></g></svg>